<svg width="24" height="24" viewBox="0 0 24 24" fill="none" xmlns="http://www.w3.org/2000/svg">
<path d="M11.9994 2.89746C12.2122 2.89659 12.3998 3.03681 12.4593 3.24113L14.0406 8.67604C14.2335 9.33915 14.7549 9.85581 15.4197 10.0427L20.7547 11.5423C20.9597 11.5999 21.1017 11.7865 21.1025 11.9994C21.1034 12.2122 20.9632 12.3999 20.7589 12.4593L15.324 14.0406C14.6608 14.2335 14.1442 14.7549 13.9573 15.4198L12.4577 20.7547C12.4001 20.9597 12.2135 21.1017 12.0005 21.1026C11.7878 21.1034 11.6001 20.9632 11.5407 20.7589L9.9594 15.324C9.76647 14.6608 9.24508 14.1442 8.58023 13.9573L3.2453 12.4577C3.04028 12.4001 2.89832 12.2135 2.89745 12.0005C2.89659 11.7878 3.0368 11.6001 3.24112 11.5407L8.67603 9.95942C9.33914 9.76649 9.8558 9.2451 10.0427 8.58026L11.5423 3.24531C11.5999 3.04029 11.7865 2.89833 11.9994 2.89746Z" fill="#3D3D3D"/>
</svg>
